<?xml version="1.0" encoding="utf-8"?>
<!-- Generator: Adobe Illustrator 15.1.0, SVG Export Plug-In . SVG Version: 6.00 Build 0)  -->
<!DOCTYPE svg PUBLIC "-//W3C//DTD SVG 1.1//EN" "http://www.w3.org/Graphics/SVG/1.1/DTD/svg11.dtd">
<svg version="1.1" id="Layer_1" xmlns="http://www.w3.org/2000/svg" xmlns:xlink="http://www.w3.org/1999/xlink" x="0px" y="0px"
	 width="551.834px" height="244.5px" viewBox="-26.334 -19 551.834 244.5" enable-background="new -26.334 -19 551.834 244.5"
	 xml:space="preserve">
<text transform="matrix(1 0 0 1 362.9951 160.9702)" fill="#B19A13" stroke="#000000" stroke-width="0.25" stroke-miterlimit="10" font-family="'GoudyOldStyleT-Regular'" font-size="33.3452">Project</text>
<g>
	<g>
		<path fill="#F1610A" stroke="#000000" stroke-miterlimit="10" d="M11.475,70.491l4.571-32.066L2.619,70.491h-9.784l1.428-32.209
			l-11.927,32.209h-5.713l18.14-49.063c-7.07,2.357-11.354,7.927-11.354,16.069c0,3.785,0.928,4.284,1,4.928
			c-4.643,0-7.642-1.786-7.642-6.499c0-9.142,11.854-18.997,22.71-18.997c1.857,0,3.714,0.356,5.428,1L3.262,55.565l15.712-37.637
			h10.284l-7.499,52.563H11.475z"/>
		<path fill="#F1610A" stroke="#000000" stroke-miterlimit="10" d="M60.816,34.783l-5.142,24.281
			c-0.214,0.929-0.286,1.643-0.286,2.285c0,2,0.93,2.643,2.928,2.643c2.786,0,4.715-2.714,5.785-6.284h3
			c-4.07,11.641-10.498,13.212-14.354,13.212c-4.07,0-6.642-2.357-7.07-6.784c-3.571,5.855-7.57,6.784-10.57,6.784
			c-4.284,0-7.641-2.571-7.641-8.57c0-1.357,0.214-2.928,0.57-4.642l4.856-22.925h10.284l-5.142,24.281
			c-0.144,0.714-0.215,1.356-0.215,2c0,1.643,0.572,2.928,2.143,2.928c2.785,0,4.643-2.714,5.714-6.284l4.856-22.925H60.816z"/>
		<path fill="#F1610A" stroke="#000000" stroke-miterlimit="10" d="M82.309,20.499l-8.213,38.565
			c-0.215,0.929-0.285,1.643-0.285,2.285c0,2,0.928,2.643,2.928,2.643c2.786,0,5.356-2.714,6.428-6.284h2.999
			c-4.07,11.641-11.141,13.212-14.997,13.212c-4.285,0-7.642-2.571-7.642-8.57c0-1.357,0.215-2.928,0.571-4.642l7.642-35.78
			L82.309,20.499z"/>
		<path fill="#F1610A" stroke="#000000" stroke-miterlimit="10" d="M100.731,23.499l-2.428,11.284h4.285l-0.57,2.856h-4.286
			l-4.57,21.425c-0.214,0.929-0.285,1.643-0.285,2.285c0,2,0.929,2.643,2.928,2.643c2.785,0,5.356-2.714,6.427-6.284h3.001
			c-4.071,11.641-11.142,13.212-14.998,13.212c-4.285,0-7.642-2.571-7.642-8.57c0-1.357,0.215-2.928,0.571-4.642l4.285-20.068
			h-2.356l0.57-2.856h2.357l2.142-9.855L100.731,23.499z"/>
		<path fill="#F1610A" stroke="#000000" stroke-miterlimit="10" d="M117.37,34.783l-5.142,24.281
			c-0.215,0.929-0.286,1.643-0.286,2.285c0,2,0.929,2.643,2.929,2.643c1.286,0,1.856-0.214,2.285-0.429
			c-0.356,5.071-3.999,7.356-7.855,7.356c-4.286,0-7.642-2.571-7.642-8.57c0-1.357,0.213-2.928,0.571-4.642l4.856-22.925H117.37z
			 M114.156,19.571c3.143,0,5.714,2.571,5.714,5.713c0,3.143-2.571,5.643-5.714,5.643s-5.641-2.5-5.641-5.643
			C108.516,22.142,111.014,19.571,114.156,19.571z"/>
		<path fill="#F1610A" stroke="#000000" stroke-miterlimit="10" d="M132.865,54.636h-14.354l1.287-5.643h14.282L132.865,54.636z"/>
		<path fill="#F1610A" stroke="#000000" stroke-miterlimit="10" d="M192.21,17.071l-4.713,22.282
			c-4.571,21.711-8.714,31.638-24.783,31.638c-10.282,0-13.783-4.142-13.783-11.354c0-7.071,2.857-17.069,5.857-29.14l2.356-9.427
			c-7.784,2.071-12.641,7.856-12.641,16.427c0,3.785,0.928,4.284,1,4.928c-4.714,0-7.642-1.786-7.642-6.57
			c0-10.07,13.141-18.926,26.996-18.926c1.214,0,1.927,0.071,3.427,0.356c-6.642,24.639-9.641,34.28-9.641,40.279
			c0,4.07,1.357,6.428,4.928,6.428c6.07,0,8.713-1.5,13.783-24.854l4.785-22.067H192.21z"/>
		<path fill="#F1610A" stroke="#000000" stroke-miterlimit="10" d="M219.271,57.708c-3.713,4.284-7.642,6.999-10.925,8.927
			c-3,3.143-7.57,4.285-11.215,4.285c-7.283,0-10.426-4.785-10.426-9.142c0-3.285,1.857-5.713,3.785-6.642
			c4-7.07,6.569-14.141,8.784-21.14l10.57-1.428c0.857,18.496,1.571,21.282,1.571,25.995c0,1-0.072,1.856-0.287,2.714
			c1.929-1.143,3.785-2.428,5.143-3.57H219.271z M192.419,61.207c-0.715,0-1.57-0.215-1.929-0.928c0,3.355,1.214,4.999,4.355,4.999
			c3.144,0,6.214-1.644,6.214-6.643c0-3.713-0.643-5.927-1.357-16.925c-1.427,4.642-3.428,8.927-5.783,13.497
			c0.927,0.429,1.642,1.286,1.642,2.5C195.561,59.421,194.275,61.207,192.419,61.207z"/>
		<path fill="#F1610A" stroke="#000000" stroke-miterlimit="10" d="M231.052,64.92c5.642,0,9.069-3.143,12.64-7.213h2.429
			c-4.071,6.569-10.142,13.212-19.639,13.212c-6.715,0-11.142-3.285-11.142-11.355c0-8.213,4.642-25.425,19.282-25.425
			c6.356,0,7.856,3.286,7.856,6.856c0,8.213-7.856,14.569-16.427,15.069c-0.071,1-0.144,1.999-0.144,2.856
			C225.908,63.778,227.623,64.92,231.052,64.92z M235.193,37.924c-3.642,0-7.141,7.642-8.57,14.713
			c5.499-0.357,10.356-5.856,10.356-11.784C236.979,39.068,236.55,37.924,235.193,37.924z"/>
		<path fill="#F1610A" stroke="#000000" stroke-miterlimit="10" d="M258.829,34.783l-0.93,4.428
			c2.501-2.143,5.214-4.428,8.643-4.428c3.214,0,4.929,2.643,4.929,5.355c0,2.5-1.644,5.214-5.144,5.214
			c-3.999,0-2-4.714-4.142-4.714c-2.143,0-3.429,1.072-5.214,2.714l-5.713,27.139h-10.284l7.57-35.708H258.829z"/>
	</g>
</g>
<g>
	<g>
		<path fill="#02B3E4" d="M23.911,92.692l-6.475,30.581h0.826c11.021,0,19.837-11.983,19.837-22.316
			c0-7.852-5.097-14.878-18.184-14.878c-16.118,0-34.439,10.745-34.439,33.476c0,7.025,1.791,8.127,1.929,9.368
			c-9.092,0-14.739-3.444-14.739-12.674c0-19.011,23.97-36.506,50.005-36.506c20.251,0,29.343,10.607,29.343,21.902
			c0,8.129-4.821,16.807-13.776,21.904c11.71,2.342,16.256,11.847,16.256,22.179c0,13.225-7.163,39.674-30.169,39.674
			c-5.924,0-13.639-1.791-13.639-10.193c0-2.205,0.552-4.822,1.792-7.99c3.443,3.582,6.062,4.959,9.229,4.959
			c10.058,0,13.639-14.326,13.639-24.796c0-9.643-3.03-17.496-13.086-17.496c-1.103,0-3.858,0.139-6.338,0.414L4.626,183.06h-19.838
			L3.523,95.447L23.911,92.692z"/>
		<path fill="#02B3E4" d="M92.795,180.305c14.327,3.169,28.791,17.771,46.287,17.771c3.72,0,7.576-0.551,11.57-2.204
			c-1.377,13.225-6.888,21.628-14.326,21.628c-19.699,0-37.057-31.271-61.44-31.271c-1.102,0-2.066,0-3.168,0.137l20.525-95.465
			c-11.984,4.959-19.285,15.291-19.285,30.031c0,7.025,1.79,8.127,1.928,9.367c-9.505,0-14.739-3.444-14.739-13.362
			c0-18.322,25.348-35.817,48.353-35.817c1.93,0,3.72,0.138,5.511,0.275L92.795,180.305z"/>
		<path fill="#02B3E4" d="M146.799,156.749c0,9.367,2.344,15.979,7.99,15.979c13.913,0,28.792-34.714,28.792-62.541
			c0-15.979-3.168-24.108-17.633-24.108c-21.077,0-39.674,13.501-39.674,35.404c0,5.372,1.377,6.337,1.377,7.439
			c-8.679,0-13.913-3.169-13.913-11.572c0-19.286,26.449-37.607,55.516-37.607c24.106,0,32.648,14.739,32.648,35.266
			c0,26.587-14.74,68.878-50.833,68.878c-14.464,0-24.658-7.576-24.658-27.688c0-22.316,12.536-64.608,37.333-64.608
			c2.341,0,4.684,0.276,7.162,1.103C158.372,100.268,146.799,135.534,146.799,156.749z"/>
		<path fill="#02B3E4" d="M278.363,125.478l-11.296,51.796c-4.547,21.077-12.675,34.302-35.266,34.302
			c-13.088,0-19.149-9.505-19.149-19.01c0-9.368,5.924-18.873,16.806-18.873c5.511,0,13.501,0.413,13.501,9.229
			c0,1.516-0.275,3.443-0.826,5.511c-3.444-2.894-5.51-3.582-8.267-3.582c-6.335,0-9.642,5.372-9.642,10.47
			c0,4.821,2.894,9.367,8.679,9.367c6.198,0,10.606-2.755,13.775-16.943l5.51-24.659c-7.989,4.27-15.565,4.959-16.807,4.959
			c-22.454,0-29.617-16.255-29.617-35.266c0-26.312,18.047-53.036,48.766-53.036c12.812,0,25.623,5.097,25.623,18.459
			c0,7.301-2.616,12.674-9.643,12.674c-2.204,0-6.889-0.551-9.506-3.581c3.444-0.965,6.063-7.854,6.063-11.297
			c0-2.204-0.689-9.78-9.506-9.78c-15.154,0-30.583,25.76-30.583,47.664c0,12.26,4.547,22.729,15.98,22.729
			c5.098,0,8.817-1.239,11.71-5.097l5.923-26.175L278.363,125.478z"/>
	</g>
</g>
<text transform="matrix(1 0 0 1 392.4038 85.3442)" fill="#02B3E4" font-family="'GoudyOldStyleT-Regular'" font-size="51.261">A</text>
<text transform="matrix(1 0 0 1 318.9277 143.5835)" fill="#D0C271" stroke="#000000" stroke-miterlimit="10" font-family="'GoudyOldStyleT-Regular'" font-size="39.037">Nanodegree</text>
<g id="wordmark">
	<g>
		<path fill="#E45702" d="M318.92,114.782c0,4.327-3.673,7.998-8.523,7.998c-4.85,0-8.521-3.538-8.521-7.998v-15.6h-2.622v15.732
			c0,5.635,4.327,10.488,11.143,10.488c6.818,0,11.145-4.981,11.145-10.488V99.183h-2.621V114.782z M346.844,99.183h-8.26v26.221
			h8.26c7.604,0,12.717-4.981,12.717-13.112C359.561,104.294,354.448,99.183,346.844,99.183z M346.582,122.78h-5.375v-20.974h5.375
			c6.161,0,10.357,4.324,10.357,10.484C356.939,118.85,352.875,122.78,346.582,122.78z M419.865,122.78
			c-6.028,0-10.355-4.981-10.355-11.013c0-6.03,4.327-10.621,10.355-10.621c4.721,0,7.737,2.754,7.737,2.754l1.311-1.834
			c0,0-3.014-3.277-9.176-3.277c-7.214,0-12.849,5.638-12.849,12.979c0,7.342,5.374,13.636,12.977,13.636
			c6.293,0,9.701-4.327,9.701-4.327l-1.44-1.704C427.996,119.372,424.979,122.78,419.865,122.78z M446.088,125.403h2.621V99.183
			h-2.621V125.403z M463.132,101.807h9.174v23.597h2.624v-23.597h9.177v-2.624h-20.975V101.807z M514.521,99.183l-8.128,11.799l0,0
			l-8.257-11.799h-2.887l9.834,14.552v11.669h2.62v-11.669l9.703-14.552H514.521z M381.719,99.183l-10.359,26.221h2.752l2.754-7.475
			l11.538-2.36l3.671,9.835h2.754L384.47,99.183H381.719z M378.045,115.045l5.114-12.325h0.13l4.328,10.488L378.045,115.045z"/>
	</g>
</g>
<text transform="matrix(1 0 0 1 -23.3774 8.3457)" fill="#8B7B2F" font-family="'LithosPro-Regular'" font-size="31.9866">JPDESIGNS316 PRESENTS:</text>
</svg>
